<svg xmlns="http://www.w3.org/2000/svg" viewBox="0 0 74.74 80">
  <defs>
    <style>
      .cls-1 {
        fill: #cbcbcb;
      }
    </style>
  </defs>
  <g id="Group_36" data-name="Group 36" transform="translate(-20.693 -18.631)">
    <path id="Path_20" data-name="Path 20" class="cls-1" d="M26.838,41.094l8.1,1.763a2.55,2.55,0,0,0,1.084-4.984l-8.1-1.764a2.55,2.55,0,0,0-1.084,4.984Z" transform="translate(1.138 4.793)"/>
    <path id="Path_21" data-name="Path 21" class="cls-1" d="M46.568,32.564A2.55,2.55,0,0,0,49.1,34.809a2.363,2.363,0,0,0,.31-.019,2.55,2.55,0,0,0,2.225-2.839l-1-8.233a2.55,2.55,0,1,0-5.063.613Z" transform="translate(6.84 0.782)"/>
    <path id="Path_22" data-name="Path 22" class="cls-1" d="M40.774,37.319a2.551,2.551,0,0,0,3.714-3.5L30.934,19.433a2.55,2.55,0,0,0-3.713,3.5Z" transform="translate(1.605 0)"/>
    <path id="Path_23" data-name="Path 23" class="cls-1" d="M95.086,46.118,88.758,35.245a2.556,2.556,0,0,0-1.572-1.188l-6.954-1.776L73.01,30.346a2.57,2.57,0,0,0-1.819.191L54.736,38.92l-.047-.009-.008.037L34.576,49.189a26.34,26.34,0,0,0-4.29,2.4A22.112,22.112,0,0,0,20.693,69.8c0,12.358,8.958,22.3,21.871,24.2L55.295,95.41a2.411,2.411,0,0,0,.282.016c.14,0,.274-.015.414-.018a2.436,2.436,0,0,0,.3.023,2.537,2.537,0,0,0,.506-.055c13.146-.522,22.232-9.351,22.232-21.863A21.824,21.824,0,0,0,77.447,65.3L94.622,49.267A2.551,2.551,0,0,0,95.086,46.118ZM72.635,35.527l6.3,1.688,1.895.483-8.846,4.6-9.138-1.791ZM61.529,47.743l-9.108-1.919,3.062-1.56,9.248,1.812ZM25.793,69.8A17.01,17.01,0,0,1,31.33,57.258,17.223,17.223,0,0,1,33.172,55.8a21.294,21.294,0,0,1,3.513-1.961c.047-.02.093-.043.139-.066l8.354-4.255L54.4,51.453l-5.378,2.8a20.216,20.216,0,0,0-6.21,3.89,20.48,20.48,0,0,0-6.669,15.1,21.733,21.733,0,0,0,6.218,15.529C32.567,86.963,25.793,79.282,25.793,69.8ZM72.63,62.824a2.553,2.553,0,0,0-.533,3.019,16.786,16.786,0,0,1,1.833,7.669c0,9.819-7.04,16.474-17.59,16.786-9.043-1.467-15.1-8.276-15.1-17.052a15.382,15.382,0,0,1,5.009-11.338,15.551,15.551,0,0,1,1.662-1.32,15.389,15.389,0,0,1,3.1-1.637,2.453,2.453,0,0,0,.249-.114l34.8-18.1,3.6,6.189Z" transform="translate(0 3.2)"/>
  </g>
</svg>
