<svg xmlns="http://www.w3.org/2000/svg" viewBox="0 0 80 80">
  <defs>
    <style>
      .cls-1 {
        fill: #cbcbcb;
      }
    </style>
  </defs>
  <g id="Group_2" data-name="Group 2" transform="translate(0 -58.83)">
    <g id="Group_33" data-name="Group 33" transform="translate(1.685 94.634)">
      <g id="Group_32" data-name="Group 32">
        <path id="Path_16" data-name="Path 16" class="cls-1" d="M75.152,235.318H3.164c-1.747,0-3.164,1.879-3.164,4.2s1.416,4.2,3.164,4.2H75.152c1.747,0,3.164-1.878,3.164-4.2S76.9,235.318,75.152,235.318Z" transform="translate(0 -235.318)"/>
      </g>
    </g>
    <g id="Group_35" data-name="Group 35" transform="translate(0 58.83)">
      <g id="Group_34" data-name="Group 34">
        <path id="Path_17" data-name="Path 17" class="cls-1" d="M10.13,98.83,42.967,65.993a4.2,4.2,0,0,0-5.934-5.934l-35.8,35.8a4.2,4.2,0,0,0,0,5.934l35.8,35.8a4.2,4.2,0,1,0,5.934-5.934Z" transform="translate(0 -58.83)"/>
      </g>
    </g>
  </g>
</svg>
