<svg id="Group_37" data-name="Group 37" xmlns="http://www.w3.org/2000/svg" viewBox="0 0 80 76.842">
  <defs>
    <style>
      .cls-1 {
        fill: none;
      }

      .cls-2 {
        fill: #cbcbcb;
      }
    </style>
  </defs>
  <path id="Path_68" data-name="Path 68" class="cls-1" d="M317.9,552.9h80v76.842h-80Z" transform="translate(-317.899 -552.9)"/>
  <path id="Path_73" data-name="Path 73" class="cls-2" d="M17.1,60.547v2.241a6.558,6.558,0,0,1-6.667,6.4h0a6.558,6.558,0,0,1-6.667-6.4V60.547a6.558,6.558,0,0,1,6.667-6.4h0A6.354,6.354,0,0,1,17.1,60.547Zm12.333-9.605h0a6.558,6.558,0,0,0-6.667,6.4v5.443a6.558,6.558,0,0,0,6.667,6.4h0a6.558,6.558,0,0,0,6.667-6.4V57.345A6.558,6.558,0,0,0,29.433,50.941Zm19-7.364h0a6.558,6.558,0,0,0-6.667,6.4V62.468a6.558,6.558,0,0,0,6.667,6.4h0a6.558,6.558,0,0,0,6.667-6.4V49.981A6.558,6.558,0,0,0,48.433,43.577ZM79.1,15.082,76.433,3.235a4.418,4.418,0,0,0-5-3.2L59.1,2.595a4.083,4.083,0,0,0-3.333,4.8c.333,2.241,2.667,3.522,5,3.2l2.333-.64C53.766,23.086,41.766,32.051,26.433,36.854A75.505,75.505,0,0,1,5.767,40.376H4.433a4.009,4.009,0,1,0-.333,8H6.433a69.244,69.244,0,0,0,23-3.842A87.364,87.364,0,0,0,52.1,33.332a92.745,92.745,0,0,0,18.667-18.89l.667,2.241c.333,2.241,2.667,3.522,5,3.2h0a4.445,4.445,0,0,0,2.667-4.8ZM67.433,30.77h0a6.558,6.558,0,0,0-6.667,6.4V62.468a6.558,6.558,0,0,0,6.667,6.4h0a6.558,6.558,0,0,0,6.667-6.4V37.174A6.558,6.558,0,0,0,67.433,30.77Z" transform="translate(-0.1 3.218)"/>
</svg>
