<svg xmlns="http://www.w3.org/2000/svg" viewBox="0 0 80 80">
  <defs>
    <style>
      .cls-1 {
        fill: #cbcbcb;
      }
    </style>
  </defs>
  <path id="Path_18" data-name="Path 18" class="cls-1" d="M236.241,169.483l-28.192,28.192,28.192,28.192a4.886,4.886,0,0,1,0,6.916l-3.458,3.458a4.886,4.886,0,0,1-6.916,0l-28.192-28.192-28.192,28.192a4.886,4.886,0,0,1-6.916,0l-3.458-3.458a4.886,4.886,0,0,1,0-6.916L187.3,197.675l-28.192-28.192a4.886,4.886,0,0,1,0-6.916l3.458-3.458a4.886,4.886,0,0,1,6.916,0L197.675,187.3l28.192-28.192a4.886,4.886,0,0,1,6.916,0l3.458,3.458A4.962,4.962,0,0,1,236.241,169.483Z" transform="translate(-157.675 -157.675)"/>
</svg>
