<svg xmlns="http://www.w3.org/2000/svg" viewBox="0 0 60 80">
  <defs>
    <style>
      .cls-1 {
        fill: #cbcbcb;
      }
    </style>
  </defs>
  <path id="Path_22" data-name="Path 22" class="cls-1" d="M30,15A15,15,0,1,0,45,30,15.017,15.017,0,0,0,30,15Zm0,25A10,10,0,1,1,40,30,10.011,10.011,0,0,1,30,40ZM30,0A30,30,0,0,0,0,30C0,42.1,4.214,45.474,26.917,78.386a3.752,3.752,0,0,0,6.166,0C55.786,45.474,60,42.1,60,30A30,30,0,0,0,30,0Zm0,74.052C8.235,42.576,5,40.077,5,30A25,25,0,0,1,47.678,12.322,24.836,24.836,0,0,1,55,30C55,40.077,51.767,42.573,30,74.052Z"/>
</svg>
