<svg xmlns="http://www.w3.org/2000/svg" viewBox="0 0 57.915 80">
  <defs>
    <style>
      .cls-1 {
        fill: #cbcbcb;
      }
    </style>
  </defs>
  <path id="Path_23" data-name="Path 23" class="cls-1" d="M53.028,40a9.3,9.3,0,0,0-3.766-4.377L43.868,32.57h0l-1.628-1.018v3.562l3.868,2.239h0l1.629.916a6.487,6.487,0,0,1,1.73,1.629,7.592,7.592,0,0,1,.712,1.221c0,.1,4.784,12.824,4.784,20.356a5.109,5.109,0,0,1-.2,1.221c-.611,2.748-3.053,6.412-5.394,9.262-1.221,1.527-2.341,2.748-3.053,3.562a5.44,5.44,0,0,1-3.155,1.323h-11.6a2.39,2.39,0,0,1-1.934-1.323L23.206,56.387h0L19.033,43.969l-.509-1.425c-.1-.2-.1-.407-.2-.509L17.71,40.2l-.1-.305a4.128,4.128,0,0,1,1.629-4.377,3.855,3.855,0,0,1,2.952-.611,4.011,4.011,0,0,1,2.545,1.73L37.354,55.674l1.323-.814h0L40,54.046l-.305-.509-3.664-5.5-1.018-1.527h3.969a1.716,1.716,0,0,0,1.73-1.73V1.73A1.716,1.716,0,0,0,38.982,0H9.771a1.716,1.716,0,0,0-1.73,1.73V44.784a1.716,1.716,0,0,0,1.73,1.73h6.921l.509,1.527L19.44,54.86l-5.089,5.191a3.167,3.167,0,0,1-4.478-4.478l2.748-2.748L17.3,48.143H13.028l-1.934,1.934L8.651,52.519a3.308,3.308,0,0,1-5.6-2.443,3.157,3.157,0,0,1,.916-2.239l2.545-2.545V41.018L1.832,45.7A5.919,5.919,0,0,0,0,50.076a6.274,6.274,0,0,0,5.9,6.31,5.957,5.957,0,0,0-.2,1.323,6.315,6.315,0,0,0,1.832,4.478A6.146,6.146,0,0,0,12.01,64.02h0a8.67,8.67,0,0,0,2.341-.407,6.243,6.243,0,0,0,1.73,3.461,6.146,6.146,0,0,0,4.478,1.832,5.812,5.812,0,0,0,3.257-.916l2.85,8.55A5.288,5.288,0,0,0,31.45,80h11.6a8.185,8.185,0,0,0,5.394-2.341c1.018-1.018,9.466-10.076,9.466-16.183C58.015,53.435,53.232,40.509,53.028,40ZM14.86,41.12l.814,2.341h-4.58V3.053H37.659V43.461H32.977l-5.6-8.55A7.337,7.337,0,0,0,22.9,31.858a7,7,0,0,0-5.293,1.018A7.242,7.242,0,0,0,14.86,41.12ZM22.9,64.835a3.321,3.321,0,0,1-4.58,0,3.195,3.195,0,0,1,0-4.478l2.239-2.239L22.9,64.835Z"/>
</svg>
