<svg xmlns="http://www.w3.org/2000/svg" viewBox="0 0 69.34 80">
  <defs>
    <style>
      .cls-1 {
        fill: #cbcbcb;
      }
    </style>
  </defs>
  <path id="Path_20" data-name="Path 20" class="cls-1" d="M61.911,10H54.481V1.875A1.872,1.872,0,0,0,52.624,0H51.386a1.872,1.872,0,0,0-1.857,1.875V10H19.811V1.875A1.872,1.872,0,0,0,17.954,0H16.716a1.872,1.872,0,0,0-1.857,1.875V10H7.429A7.467,7.467,0,0,0,0,17.5v55A7.467,7.467,0,0,0,7.429,80H61.911a7.467,7.467,0,0,0,7.429-7.5v-55A7.467,7.467,0,0,0,61.911,10ZM7.429,15H61.911a2.5,2.5,0,0,1,2.476,2.5V25H4.953V17.5A2.5,2.5,0,0,1,7.429,15ZM61.911,75H7.429a2.5,2.5,0,0,1-2.476-2.5V30H64.387V72.5A2.5,2.5,0,0,1,61.911,75Zm-39-25H16.716a1.872,1.872,0,0,1-1.857-1.875v-6.25A1.872,1.872,0,0,1,16.716,40h6.191a1.872,1.872,0,0,1,1.857,1.875v6.25A1.872,1.872,0,0,1,22.907,50Zm14.859,0H31.574a1.872,1.872,0,0,1-1.857-1.875v-6.25A1.872,1.872,0,0,1,31.574,40h6.191a1.872,1.872,0,0,1,1.857,1.875v6.25A1.872,1.872,0,0,1,37.765,50Zm14.859,0H46.433a1.872,1.872,0,0,1-1.857-1.875v-6.25A1.872,1.872,0,0,1,46.433,40h6.191a1.872,1.872,0,0,1,1.857,1.875v6.25A1.872,1.872,0,0,1,52.624,50ZM37.765,65H31.574a1.872,1.872,0,0,1-1.857-1.875v-6.25A1.872,1.872,0,0,1,31.574,55h6.191a1.872,1.872,0,0,1,1.857,1.875v6.25A1.872,1.872,0,0,1,37.765,65ZM22.907,65H16.716a1.872,1.872,0,0,1-1.857-1.875v-6.25A1.872,1.872,0,0,1,16.716,55h6.191a1.872,1.872,0,0,1,1.857,1.875v6.25A1.872,1.872,0,0,1,22.907,65Zm29.717,0H46.433a1.872,1.872,0,0,1-1.857-1.875v-6.25A1.872,1.872,0,0,1,46.433,55h6.191a1.872,1.872,0,0,1,1.857,1.875v6.25A1.872,1.872,0,0,1,52.624,65Z"/>
</svg>
