<svg xmlns="http://www.w3.org/2000/svg" viewBox="0 0 91.429 80">
  <defs>
    <style>
      .cls-1 {
        fill: #cbcbcb;
      }
    </style>
  </defs>
  <path id="Path_21" data-name="Path 21" class="cls-1" d="M88.571,106.286H85.714V99.143a4.286,4.286,0,0,0-4.286-4.286H74.286V63.429H68.571V94.857H57.143V63.429H51.429V94.857H40V63.429H34.286V94.857H22.857V63.429H17.143V94.857H10a4.286,4.286,0,0,0-4.286,4.286v7.143H2.857A2.857,2.857,0,0,0,0,109.143v1.429A1.429,1.429,0,0,0,1.429,112H90a1.429,1.429,0,0,0,1.429-1.429v-1.429A2.857,2.857,0,0,0,88.571,106.286Zm-77.143-5.714H80v5.714H11.429Zm78.619-50L48.425,32.44a8.572,8.572,0,0,0-5.421,0L1.381,50.571a2.143,2.143,0,0,0-1.381,2v1.569a2.143,2.143,0,0,0,2.143,2.143H5.714v2.143a2.143,2.143,0,0,0,2.143,2.143H83.571a2.143,2.143,0,0,0,2.143-2.143V56.286h3.571a2.143,2.143,0,0,0,2.143-2.143V52.574A2.143,2.143,0,0,0,90.048,50.571ZM80,54.857H11.429v-2.43L44.99,37.808a2.858,2.858,0,0,1,1.449,0L80,52.427Z" transform="translate(0 -32)"/>
</svg>
