<svg xmlns="http://www.w3.org/2000/svg" viewBox="0 0 67.228 67.229">
  <defs>
    <style>
      .cls-1 {
        fill: #cbcbcb;
      }
    </style>
  </defs>
  <path id="Path_4" data-name="Path 4" class="cls-1" d="M64.786,3.231,51.13.08A3.172,3.172,0,0,0,47.52,1.905l-6.3,14.706a3.143,3.143,0,0,0,.906,3.676L50.08,26.8A48.662,48.662,0,0,1,26.813,50.067L20.3,42.11a3.148,3.148,0,0,0-3.676-.906l-14.706,6.3A3.189,3.189,0,0,0,.08,51.13L3.231,64.786A3.15,3.15,0,0,0,6.3,67.228,60.917,60.917,0,0,0,67.228,6.3,3.147,3.147,0,0,0,64.786,3.231Z" transform="translate(67.228) rotate(90)"/>
</svg>
