<svg xmlns="http://www.w3.org/2000/svg" viewBox="0 0 106.667 80">
  <defs>
    <style>
      .cls-1 {
        fill: #cbcbcb;
      }
    </style>
  </defs>
  <path id="Path_3" data-name="Path 3" class="cls-1" d="M96.667,64H10A10,10,0,0,0,0,74v60a10,10,0,0,0,10,10H96.667a10,10,0,0,0,10-10V74A10,10,0,0,0,96.667,64Zm0,10v8.5C92,86.3,84.548,92.221,68.628,104.687c-3.509,2.76-10.459,9.389-15.294,9.313-4.835.078-11.787-6.555-15.294-9.313C22.121,92.223,14.672,86.307,10,82.5V74ZM10,134V95.333c4.774,3.8,11.544,9.138,21.862,17.219,4.554,3.584,12.528,11.5,21.471,11.448,8.9.049,16.773-7.749,21.469-11.447,10.318-8.079,17.09-13.417,21.864-17.22V134Z" transform="translate(0 -64)"/>
</svg>
