<svg xmlns="http://www.w3.org/2000/svg" viewBox="0 0 80 63.622">
  <defs>
    <style>
      .cls-1 {
        fill: #cbcbcb;
      }
    </style>
  </defs>
  <path id="Path_74" data-name="Path 74" class="cls-1" d="M0,55.773a8.007,8.007,0,0,1,8.172-7.85c4.731,0,8.172,3.305,8.172,7.85s-3.441,7.85-8.172,7.85A8.007,8.007,0,0,1,0,55.773ZM8.172,15.286a8.013,8.013,0,0,0,8.172-7.85C16.344,2.892,12.473,0,8.172,0A8.013,8.013,0,0,0,0,7.85C0,12.394,3.441,15.286,8.172,15.286Zm0,23.962a8.013,8.013,0,0,0,8.172-7.85c0-4.544-3.871-7.436-8.172-7.436A8.013,8.013,0,0,0,0,31.811C0,36.356,3.441,39.248,8.172,39.248Zm26.667-26.44h40A5.127,5.127,0,0,0,80,7.85a5.444,5.444,0,0,0-5.161-4.958h-40A5.127,5.127,0,0,0,29.677,7.85,5.127,5.127,0,0,0,34.839,12.807Zm0,23.962h40A5.127,5.127,0,0,0,80,31.811a5.133,5.133,0,0,0-5.161-4.958h-40a5,5,0,0,0-5.591,4.958C29.247,34.7,31.828,36.769,34.839,36.769Zm0,23.962h40A5.127,5.127,0,0,0,80,55.773a5.444,5.444,0,0,0-5.161-4.958h-40a4.962,4.962,0,1,0,0,9.915Z"/>
</svg>
