<svg xmlns="http://www.w3.org/2000/svg" viewBox="0 0 106.667 80">
  <defs>
    <style>
      .cls-1 {
        fill: #cbcbcb;
      }
    </style>
  </defs>
  <path id="Path_19" data-name="Path 19" class="cls-1" d="M93.333,91.062V84.042A20.027,20.027,0,0,0,73.333,64h-40a20.027,20.027,0,0,0-20,20.042v7.021a16.669,16.669,0,0,0-6.667,29.667v16.583A6.677,6.677,0,0,0,13.333,144H26.667a6.8,6.8,0,0,0,6.625-6.667H73.375A6.8,6.8,0,0,0,80,144H93.333A6.677,6.677,0,0,0,100,137.313V120.729a16.669,16.669,0,0,0-6.667-29.667Zm-66.667,46.25H13.333V117.021c-3.562-2.083-6.667-4.4-6.667-9.583a10.02,10.02,0,0,1,10-10.021h6.667a3.343,3.343,0,0,1,3.333,3.333Zm46.667-6.646h-40v-19.9h40Zm0-29.917V104h-40v-3.25a10.02,10.02,0,0,0-10-10.021H20V84.042A13.35,13.35,0,0,1,33.333,70.687h40A13.364,13.364,0,0,1,86.667,84.042v6.687H83.333A10.02,10.02,0,0,0,73.333,100.75Zm20,16.271v20.292H80V100.75a3.343,3.343,0,0,1,3.333-3.333H90a10.02,10.02,0,0,1,10,10.021C100,112.417,97.1,114.812,93.333,117.021Z" transform="translate(0 -64)"/>
</svg>
